<svg xmlns="http://www.w3.org/2000/svg" viewBox="-0.5 -0.5 125 125" id="Figma--Streamline-Font-Awesome.svg" height="125" width="125"><desc>Figma Streamline Icon: https://streamlinehq.com</desc><!--! Font Awesome Free 6.5.2 by @fontawesome - https://fontawesome.com License - https://fontawesome.com/license/free (Icons: CC BY 4.0, Fonts: SIL OFL 1.1, Code: MIT License) Copyright 2024 Fonticons, Inc.--><path d="M19.758269791666663 23.975722916666662c0 -12.556582291666667 10.179140624999999 -22.735722916666663 22.735884374999998 -22.735722916666663h39.011691666666664c12.556679166666665 0 22.735884374999998 10.179140624999999 22.735884374999998 22.735722916666663 0 7.950918749999999 -4.081376041666666 14.948781249999998 -10.263454166666666 19.012332291666663 6.182078124999999 4.063809374999999 10.263454166666666 11.061413541666665 10.263454166666666 19.012429166666664 0 12.556646874999998 -10.179205208333332 22.735852083333327 -22.735852083333327 22.735852083333327h-0.4936749999999999c-5.886609375 0 -11.250804166666665 -2.237198958333333 -15.288521874999999 -5.907728124999998v20.948669791666664c0 12.72401458333333 -10.44525625 22.982721875 -23.10707708333333 22.982721875 -12.525323958333331 0 -22.858334374999995 -10.148108333333333 -22.858334374999995 -22.735884374999998 0 -7.950531249999998 4.081020833333333 -14.947909374999998 10.26255 -19.01168645833333 -6.1815291666666665 -4.063809374999999 -10.26255 -11.061413541666665 -10.26255 -19.011944791666664 0 -7.951015624999998 4.081376041666666 -14.948619791666664 10.263324999999998 -19.012429166666664 -6.181948958333333 -4.063551041666666 -10.263324999999998 -11.061413541666665 -10.263324999999998 -19.012332291666663Zm38.51804895833333 22.736239583333333h-15.782164583333332c-8.443689583333333 0 -15.288554166666664 6.844993749999999 -15.288554166666664 15.288521874999999 0 8.410978125 6.792067708333333 15.235563541666664 15.19074270833333 15.288263541666664 0.032517708333333326 -0.00025833333333333334 0.06503541666666665 -0.00025833333333333334 0.09781145833333332 -0.00025833333333333334h15.782164583333332v-30.57652708333333Zm7.447362499999999 15.288521874999999c0 8.443495833333333 6.8447677083333325 15.288489583333332 15.288489583333332 15.288489583333332h0.4936749999999999c8.443754166666665 0 15.288521874999999 -6.844993749999999 15.288521874999999 -15.288489583333332s-6.8447677083333325 -15.288489583333332 -15.288489583333332 -15.288489583333332h-0.4936749999999999c-8.443754166666665 0 -15.288521874999999 6.844993749999999 -15.288521874999999 15.288489583333332Zm-23.22952708333333 22.735852083333327c-0.032776041666666665 0 -0.06529374999999998 -0.00022604166666666663 -0.09781145833333332 -0.00022604166666666663 -8.398674999999999 0.05244166666666666 -15.19074270833333 6.877027083333333 -15.19074270833333 15.2880375 0 8.412624999999998 6.936282291666666 15.288489583333332 15.411004166666666 15.288489583333332 8.611315625 0 15.659714583333331 -6.986463541666666 15.659714583333331 -15.535327083333332v-15.04097395833333h-15.782164583333332Zm0 -76.04900624999999c-8.443689583333333 0 -15.288554166666664 6.844864583333332 -15.288554166666664 15.288392708333333 0 8.443657291666666 6.844864583333332 15.288424999999998 15.288554166666664 15.288424999999998h15.782164583333332V8.687330208333332h-15.782164583333332Zm23.22952708333333 30.57681770833333h15.782164583333332c8.443754166666665 0 15.288521874999999 -6.8447677083333325 15.288521874999999 -15.288424999999998 0 -8.443528124999998 -6.8447677083333325 -15.288392708333333 -15.288489583333332 -15.288392708333333h-15.782196874999999v30.576785416666667Z" fill="#111" stroke-width="1"></path></svg>