<svg xmlns="http://www.w3.org/2000/svg" viewBox="-0.5 -0.5 125 125" id="React--Streamline-Font-Awesome.svg" height="125" width="125"><desc>React Streamline Icon: https://streamlinehq.com</desc><!--! Font Awesome Free 6.5.2 by @fontawesome - https://fontawesome.com License - https://fontawesome.com/license/free (Icons: CC BY 4.0, Fonts: SIL OFL 1.1, Code: MIT License) Copyright 2024 Fonticons, Inc.--><path d="M101.28281249999999 42.915625c-1.3078125 -0.43593750000000003 -2.615625 -0.84765625 -3.9234375 -1.23515625 0.21796875000000002 -0.89609375 0.41171874999999997 -1.7921875 0.60546875 -2.6882812499999997 2.97890625 -14.434375000000001 1.0171875000000001 -26.03515625 -5.59453125 -29.861718749999998 -6.3695312500000005 -3.6570312499999997 -16.759375000000002 0.14531249999999998 -27.2703125 9.299999999999999 -1.0414062499999999 0.89609375 -2.05859375 1.840625 -3.02734375 2.78515625 -0.65390625 -0.6296875000000001 -1.33203125 -1.2593750000000001 -2.01015625 -1.8648437500000001 -11.01953125 -9.784374999999999 -22.06328125 -13.901562499999999 -28.675 -10.05078125 -6.3453124999999995 3.68125 -8.234375 14.60390625 -5.5703125 28.263281250000002 0.26640625 1.35625 0.55703125 2.6882812499999997 0.89609375 4.0445312499999995 -1.55 0.43593750000000003 -3.07578125 0.9203125 -4.5046875 1.42890625C9.27578125 47.5171875 0 54.589062500000004 0 61.903124999999996c0 7.5562499999999995 9.88125 15.13671875 23.322656249999998 19.73828125 1.08984375 0.36328125 2.1796875 0.7265625 3.2937499999999997 1.0414062499999999 -0.36328125 1.453125 -0.678125 2.8820312500000003 -0.96875 4.359375 -2.54296875 13.44140625 -0.55703125 24.09765625 5.78828125 27.7546875 6.5390625 3.7781249999999997 17.534375 -0.096875 28.2390625 -9.469531250000001 0.84765625 -0.7507812500000001 1.6953125 -1.5257812499999999 2.54296875 -2.34921875 1.065625 1.0414062499999999 2.1796875 2.0343750000000003 3.2937499999999997 3.0031250000000003 10.365625 8.9125 20.61015625 12.52109375 26.931250000000002 8.864062500000001 6.5390625 -3.7781249999999997 8.6703125 -15.233593749999999 5.909375 -29.18359375 -0.21796875000000002 -1.065625 -0.46015625 -2.1554687500000003 -0.7265625 -3.26953125 0.775 -0.21796875000000002 1.5257812499999999 -0.46015625 2.2765625000000003 -0.7023437499999999 13.97421875 -4.62578125 24.09765625 -12.109375 24.09765625 -19.786718750000002 0 -7.3382812500000005 -9.542187499999999 -14.45859375 -22.717187499999998 -18.9875zM68.51484375 22.353906249999998c9.009375 -7.846875 17.41328125 -10.922656250000001 21.239843750000002 -8.71875 4.09296875 2.34921875 5.6671875 11.842968749999999 3.1 24.315625 -0.16953125 0.8234374999999999 -0.3390625 1.6226562500000001 -0.55703125 2.421875 -5.3765624999999995 -1.2109375 -10.82578125 -2.0828124999999997 -16.299218749999998 -2.5671874999999997 -3.1484375 -4.5046875 -6.5874999999999995 -8.815624999999999 -10.317187500000001 -12.860156250000001 0.9445312499999999 -0.89609375 1.8648437500000001 -1.7437500000000001 2.83359375 -2.59140625zM40.49375 74.47265625c1.23515625 2.10703125 2.49453125 4.2140625 3.8265625 6.27265625 -3.7781249999999997 -0.41171874999999997 -7.53203125 -1.0171875000000001 -11.237499999999999 -1.81640625 1.065625 -3.4875000000000003 2.3976562500000003 -7.0960937500000005 3.94765625 -10.77734375 1.1140625 2.13125 2.25234375 4.23828125 3.46328125 6.32109375zm-7.3382812500000005 -29.135156249999998c3.4875000000000003 -0.775 7.1929687499999995 -1.4046874999999999 11.043750000000001 -1.8890624999999999 -1.2835937499999999 2.01015625 -2.54296875 4.0687500000000005 -3.7296875000000003 6.1515625 -1.18671875 2.05859375 -2.34921875 4.1656249999999995 -3.4390625 6.296875 -1.5257812499999999 -3.6085937500000003 -2.8093749999999997 -7.14453125 -3.875 -10.559375000000001zm6.6359375 16.68671875c1.5984375 -3.3421875 3.3421875 -6.6117187500000005 5.1828125 -9.832812500000001s3.8265625 -6.3453124999999995 5.909375 -9.421093749999999c3.6328125 -0.26640625 7.3382812500000005 -0.41171874999999997 11.116406249999999 -0.41171874999999997s7.5078125 0.14531249999999998 11.116406249999999 0.41171874999999997c2.05859375 3.0515624999999997 4.0203125 6.17578125 5.8851562500000005 9.37265625s3.6085937500000003 6.4664062499999995 5.2554687499999995 9.784374999999999c-1.6226562500000001 3.3421875 -3.3664062500000003 6.6359375 -5.23125 9.88125 -1.840625 3.22109375 -3.80234375 6.3453124999999995 -5.8609374999999995 9.4453125 -3.6085937500000003 0.26640625 -7.3625 0.3875 -11.164843750000001 0.3875s-7.48359375 -0.12109375 -11.043750000000001 -0.3390625c-2.10703125 -3.07578125 -4.09296875 -6.2242187499999995 -5.9578125 -9.4453125s-3.584375 -6.4906250000000005 -5.20703125 -9.832812500000001zm43.739062499999996 12.4c1.23515625 -2.13125 2.3976562500000003 -4.2867187499999995 3.5359374999999997 -6.4664062499999995 1.55 3.51171875 2.90625 7.0718749999999995 4.09296875 10.72890625 -3.75390625 0.84765625 -7.5562499999999995 1.5015625000000001 -11.3828125 1.9375 1.3078125 -2.0343750000000003 2.54296875 -4.1171875 3.75390625 -6.2zm3.4875000000000003 -18.52734375c-1.1382812500000001 -2.13125 -2.30078125 -4.2625 -3.51171875 -6.3453124999999995 -1.18671875 -2.05859375 -2.421875 -4.09296875 -3.70546875 -6.1031249999999995 3.89921875 0.484375 7.62890625 1.1382812500000001 11.116406249999999 1.9375 -1.1140625 3.584375 -2.421875 7.0718749999999995 -3.89921875 10.510937499999999zM62.0484375 28.650781249999998c2.54296875 2.7609375000000003 4.940625 5.6671875 7.16875 8.6703125 -4.7953125000000005 -0.21796875000000002 -9.61484375 -0.21796875000000002 -14.41015625 0 2.3734375 -3.1242187500000003 4.81953125 -6.03046875 7.24140625 -8.6703125zM33.9546875 13.8046875c4.0687500000000005 -2.3734375 13.102343750000001 1.0171875000000001 22.6203125 9.4453125 0.60546875 0.5328125 1.2109375 1.1140625 1.840625 1.6953125 -3.75390625 4.0445312499999995 -7.2171875000000005 8.35546875 -10.389843749999999 12.860156250000001 -5.4734375 0.484375 -10.8984375 1.33203125 -16.275000000000002 2.5187500000000003 -0.31484375000000003 -1.23515625 -0.5812499999999999 -2.49453125 -0.84765625 -3.75390625 -2.2765625000000003 -11.721874999999999 -0.775 -20.56171875 3.0515624999999997 -22.765625zm-5.93359375 63.840625c-1.0171875000000001 -0.29062499999999997 -2.01015625 -0.60546875 -3.0031250000000003 -0.9445312499999999 -5.1585937500000005 -1.6226562500000001 -11.01953125 -4.1898437500000005 -15.2578125 -7.5562499999999995 -2.4460937499999997 -1.6953125 -4.09296875 -4.3109375000000005 -4.5531250000000005 -7.24140625 0 -4.4320312500000005 7.653125 -10.09921875 18.696875000000002 -13.950000000000001 1.3804687500000001 -0.484375 2.78515625 -0.9203125 4.1898437500000005 -1.33203125 1.6468749999999999 5.2554687499999995 3.6328125 10.4140625 5.93359375 15.403125000000001 -2.3249999999999997 5.06171875 -4.33515625 10.29296875 -6.0062500000000005 15.62109375zm28.2390625 23.734375c-3.99609375 3.6570312499999997 -8.621875000000001 6.56328125 -13.659374999999999 8.54921875 -2.6882812499999997 1.2835937499999999 -5.78828125 1.4046874999999999 -8.54921875 0.31484375000000003 -3.8507812500000003 -2.228125 -5.44921875 -10.77734375 -3.26953125 -22.28125 0.26640625 -1.35625 0.55703125 -2.7125 0.89609375 -4.0445312499999995 5.425 1.1624999999999999 10.8984375 1.96171875 16.44453125 2.3734375 3.196875 4.5289062499999995 6.7085937499999995 8.864062500000001 10.4625 12.932812499999999 -0.775 0.7507812500000001 -1.55 1.47734375 -2.3249999999999997 2.1554687500000003zm5.93359375 -5.8851562500000005c-2.4703125 -2.6640625 -4.940625 -5.6187499999999995 -7.3382812500000005 -8.79140625 2.3249999999999997 0.096875 4.72265625 0.14531249999999998 7.14453125 0.14531249999999998 2.49453125 0 4.940625 -0.0484375 7.3625 -0.16953125 -2.228125 3.07578125 -4.62578125 6.0062500000000005 -7.16875 8.815624999999999zm31.65390625 7.265625c-0.21796875000000002 2.9546875 -1.67109375 5.715625 -3.99609375 7.5804687500000005 -3.8507812500000003 2.228125 -12.0609375 -0.678125 -20.925 -8.2828125 -1.0171875000000001 -0.8718750000000001 -2.0343750000000003 -1.81640625 -3.07578125 -2.78515625 3.70546875 -4.09296875 7.1203125 -8.428125 10.2203125 -12.981250000000001 5.54609375 -0.46015625 11.06796875 -1.3078125 16.517187500000002 -2.54296875 0.2421875 0.99296875 0.46015625 1.9859375 0.65390625 2.9546875 1.18671875 5.23125 1.3804687500000001 10.680468750000001 0.60546875 16.057031249999998zm4.4078124999999995 -26.03515625c-0.678125 0.21796875000000002 -1.35625 0.43593750000000003 -2.05859375 0.6296875000000001 -1.6953125 -5.2796875000000005 -3.7781249999999997 -10.438281250000001 -6.17578125 -15.4515625 2.3249999999999997 -4.940625 4.2867187499999995 -10.026562499999999 5.93359375 -15.233593749999999 1.2593750000000001 0.36328125 2.4703125 0.7507812500000001 3.6328125 1.1382812500000001 11.285937500000001 3.875 19.205468749999998 9.6390625 19.205468749999998 14.046875 0 4.746875 -8.452343749999999 10.874218749999999 -20.537499999999998 14.870312499999999zm-36.25546875 -3.6328125c6.1273437500000005 0 11.0921875 -4.96484375 11.0921875 -11.0921875s-4.96484375 -11.0921875 -11.0921875 -11.0921875c-6.1273437500000005 0 -11.0921875 4.96484375 -11.0921875 11.0921875s4.96484375 11.0921875 11.0921875 11.0921875z" fill="#111" stroke-width="1"></path></svg>