<svg xmlns="http://www.w3.org/2000/svg" fill="none" viewBox="0 0 250 250" id="Ampersand-And--Streamline-Retro.svg" height="250" width="250"><desc>Ampersand And Streamline Element: https://streamlinehq.com</desc><path fill="#94e986" d="M206.80364583333332 174.11406250000002c6.536979166666667 -16.4296875 11.171875 -35.366145833333334 13.940104166666666 -56.77552083333333l0.35572916666666665 -2.75 -33.39479166666667 -0.8494791666666666 -0.46510416666666665 3.599479166666667c-2.76875 21.409374999999997 -7.403645833333333 40.34583333333333 -13.940624999999999 56.77552083333333h33.504687499999996Z" stroke-width="2"></path><path fill="#94e986" d="m239.57604166666667 202.79375 -32.772395833333334 -28.675520833333334h-33.504687499999996l32.772395833333334 28.675520833333334h33.504687499999996Z" stroke-width="2"></path><path fill="#94e986" d="m213.59947916666664 232.54010416666665 25.989062499999996 -29.751041666666666h-33.50416666666666l-25.969791666666666 29.751041666666666h33.48489583333333Z" stroke-width="2"></path><path fill="#89dcff" fill-rule="evenodd" d="M94.70729166666666 17.456041666666668c-18.5671875 0 -33.72604166666666 4.003333333333333 -45.14609374999999 12.358020833333331 -11.554010416666667 8.259427083333332 -17.385104166666665 19.752291666666665 -17.385104166666665 34.14010416666667 0 9.763541666666667 1.1658333333333333 17.936979166666667 3.6558854166666666 24.369791666666668l0.016354166666666666 0.042187499999999996 0.017499999999999998 0.041666666666666664c2.34640625 5.5953124999999995 6.802499999999999 12.473437499999998 13.19614583333333 20.58020833333333 -12.47015625 5.4624999999999995 -21.983072916666664 12.4796875 -28.281458333333333 21.180208333333333C13.741406249999999 139.69947916666666 10.416666666666666 152.58645833333333 10.416666666666666 168.45625c0 20.326562499999998 6.044999999999999 36.23072916666666 18.58848958333333 47.12916666666666l0.021510416666666664 0.01875 0.021822916666666668 0.018229166666666664c12.7378125 10.683333333333334 33.565052083333335 15.651562499999999 61.65046875 15.651562499999999 12.084895833333333 0 23.513541666666665 -2.3802083333333335 34.2515625 -7.153124999999999l0.012499999999999999 -0.005208333333333333 0.012499999999999999 -0.005729166666666666c9.756770833333333 -4.434895833333333 18.00208333333333 -9.948958333333332 24.675520833333334 -16.5734375l30.465625 25.005208333333332 25.989062499999996 -29.751041666666666 -32.772395833333334 -28.675520833333334c6.5375000000000005 -16.4296875 11.171875 -35.366145833333334 13.940624999999999 -56.77552083333333l0.46510416666666665 -3.599479166666667 -44.067708333333336 -1.0166666666666666 -0.11927083333333333 3.2177083333333334c-0.18489583333333331 4.997395833333333 -0.8369791666666667 11.556249999999999 -1.9749999999999999 19.711458333333333 -0.6286458333333333 4.503645833333334 -1.24375 8.086458333333333 -1.8317708333333333 10.808854166666666l-21.386979166666666 -21.3875c13.134895833333333 -9.469791666666666 22.623437499999998 -18.0328125 28.229166666666664 -25.69375 6.275 -8.575520833333334 9.219270833333333 -20.125 9.219270833333333 -34.28125 0 -14.659479166666667 -5.4546874999999995 -26.429010416666664 -16.4265625 -34.92364583333333 -10.891145833333333 -8.623489583333333 -25.923437499999995 -12.719270833333333 -44.67291666666666 -12.719270833333333Zm-17.062499999999996 55.08718749999999c0 -5.878645833333334 1.4875 -9.690624999999999 3.89375 -12.0609375 2.4145833333333333 -2.3796874999999997 6.3114583333333325 -3.8562499999999993 12.309895833333334 -3.8562499999999993 6.1515625 0 10.155729166666665 1.4104166666666664 12.614583333333334 3.655208333333333 2.4026041666666664 2.19375 3.8749999999999996 5.688020833333334 3.8749999999999996 11.116666666666665 0 5.695833333333333 -1.4526041666666665 10.447916666666664 -4.247395833333333 14.405208333333333 -2.6515625 3.5786458333333333 -7.121874999999999 7.8234375 -13.581770833333332 12.733854166666667l-2.8635416666666664 -3.031770833333333 -0.003645833333333333 -0.004166666666666667c-8.363541666666666 -8.922395833333333 -11.996875 -16.547916666666666 -11.996875 -22.957812499999996ZM55.885416666666664 165.30729166666666c0 -6.908854166666666 1.6312499999999999 -12.712499999999999 4.7703125 -17.547916666666666 2.811458333333333 -4.331770833333333 6.939583333333333 -8.05 12.527083333333332 -11.097916666666665l45.49010416666666 45.490624999999994c-2.489583333333333 1.922395833333333 -6.209375 3.7057291666666665 -11.417187499999999 5.213541666666666 -6.9546874999999995 2.0130208333333335 -14.092708333333333 3.0203124999999997 -21.423958333333335 3.0203124999999997 -10.682812499999999 0 -18.085416666666664 -2.2901041666666666 -22.789062499999996 -6.304166666666666 -4.6046875 -3.9296874999999996 -7.157291666666667 -9.977083333333333 -7.157291666666667 -18.774479166666666Z" clip-rule="evenodd" stroke-width="2"></path><path stroke="#000000" stroke-linejoin="round" d="M94.70729166666666 17.456041666666668c-18.5671875 0 -33.72604166666666 4.003333333333333 -45.14609374999999 12.358020833333331 -11.554010416666667 8.259427083333332 -17.385104166666665 19.752291666666665 -17.385104166666665 34.14010416666667 0 9.763541666666667 1.1658333333333333 17.936979166666667 3.6558854166666666 24.369791666666668l0.016354166666666666 0.042187499999999996 0.017499999999999998 0.041666666666666664c2.34640625 5.5953124999999995 6.802499999999999 12.473437499999998 13.19614583333333 20.58020833333333 -12.47015625 5.4624999999999995 -21.983072916666664 12.4796875 -28.281458333333333 21.180208333333333C13.741406249999999 139.69947916666666 10.416666666666666 152.58645833333333 10.416666666666666 168.45625c0 20.326562499999998 6.044999999999999 36.23072916666666 18.58848958333333 47.12916666666666l0.021510416666666664 0.01875 0.021822916666666668 0.018229166666666664c12.7378125 10.683333333333334 33.565052083333335 15.651562499999999 61.65046875 15.651562499999999 12.084895833333333 0 23.513541666666665 -2.3802083333333335 34.2515625 -7.153124999999999l0.012499999999999999 -0.005208333333333333 0.012499999999999999 -0.005729166666666666c9.756770833333333 -4.434895833333333 18.00208333333333 -9.948958333333332 24.675520833333334 -16.5734375l30.465625 25.005208333333332 25.989062499999996 -29.751041666666666 -32.772395833333334 -28.675520833333334c6.5375000000000005 -16.4296875 11.171875 -35.366145833333334 13.940624999999999 -56.77552083333333l0.46510416666666665 -3.599479166666667 -44.067708333333336 -1.0166666666666666 -0.11927083333333333 3.2177083333333334c-0.18489583333333331 4.997395833333333 -0.8369791666666667 11.556249999999999 -1.9749999999999999 19.711458333333333 -0.6286458333333333 4.503645833333334 -1.24375 8.086458333333333 -1.8317708333333333 10.808854166666666l-21.386979166666666 -21.3875c13.134895833333333 -9.469791666666666 22.623437499999998 -18.0328125 28.229166666666664 -25.69375 6.275 -8.575520833333334 9.219270833333333 -20.125 9.219270833333333 -34.28125 0 -14.659479166666667 -5.4546874999999995 -26.429010416666664 -16.4265625 -34.92364583333333 -10.891145833333333 -8.623489583333333 -25.923437499999995 -12.719270833333333 -44.67291666666666 -12.719270833333333Zm-17.062499999999996 55.08718749999999c0 -5.878645833333334 1.4875 -9.690624999999999 3.89375 -12.0609375 2.4145833333333333 -2.3796874999999997 6.3114583333333325 -3.8562499999999993 12.309895833333334 -3.8562499999999993 6.1515625 0 10.155729166666665 1.4104166666666664 12.614583333333334 3.655208333333333 2.4026041666666664 2.19375 3.8749999999999996 5.688020833333334 3.8749999999999996 11.116666666666665 0 5.695833333333333 -1.4526041666666665 10.447916666666664 -4.247395833333333 14.405208333333333 -2.6515625 3.5786458333333333 -7.121874999999999 7.8234375 -13.581770833333332 12.733854166666667l-2.8635416666666664 -3.031770833333333 -0.003645833333333333 -0.004166666666666667c-8.363541666666666 -8.922395833333333 -11.996875 -16.547916666666666 -11.996875 -22.957812499999996ZM55.885416666666664 165.30729166666666c0 -6.908854166666666 1.6312499999999999 -12.712499999999999 4.7703125 -17.547916666666666 2.811458333333333 -4.331770833333333 6.939583333333333 -8.05 12.527083333333332 -11.097916666666665l45.49010416666666 45.490624999999994c-2.489583333333333 1.922395833333333 -6.209375 3.7057291666666665 -11.417187499999999 5.213541666666666 -6.9546874999999995 2.0130208333333335 -14.092708333333333 3.0203124999999997 -21.423958333333335 3.0203124999999997 -10.682812499999999 0 -18.085416666666664 -2.2901041666666666 -22.789062499999996 -6.304166666666666 -4.6046875 -3.9296874999999996 -7.157291666666667 -9.977083333333333 -7.157291666666667 -18.774479166666666Z" clip-rule="evenodd" stroke-width="2"></path><path fill="#94e986" d="M103.98333333333333 230.278125c6.251041666666666 0.6703125 12.996875 0.9994791666666666 20.222916666666666 0.9994791666666666 12.084895833333333 0 23.513541666666665 -2.380729166666667 34.2515625 -7.153124999999999l0.012499999999999999 -0.005729166666666666 0.012499999999999999 -0.005729166666666666c2.4458333333333333 -1.1114583333333332 4.796875 -2.291145833333333 7.0515625 -3.5390624999999996l-15.880729166666667 -13.033854166666666c-6.672916666666666 6.624479166666666 -14.918229166666666 12.138541666666667 -24.674999999999997 16.572916666666664l-0.012499999999999999 0.005729166666666666 -0.012499999999999999 0.005729166666666666c-6.722395833333333 2.9875 -13.715104166666666 5.038020833333333 -20.9703125 6.153645833333333Z" stroke-width="2"></path><path stroke="#000000" stroke-linejoin="round" d="M103.98333333333333 230.278125c6.251041666666666 0.6703125 12.996875 0.9994791666666666 20.222916666666666 0.9994791666666666 12.084895833333333 0 23.513541666666665 -2.380729166666667 34.2515625 -7.153124999999999l0.012499999999999999 -0.005729166666666666 0.012499999999999999 -0.005729166666666666c2.4458333333333333 -1.1114583333333332 4.796875 -2.291145833333333 7.0515625 -3.5390624999999996l-15.880729166666667 -13.033854166666666c-6.672916666666666 6.624479166666666 -14.918229166666666 12.138541666666667 -24.674999999999997 16.572916666666664l-0.012499999999999999 0.005729166666666666 -0.012499999999999999 0.005729166666666666c-6.722395833333333 2.9875 -13.715104166666666 5.038020833333333 -20.9703125 6.153645833333333Z" stroke-width="2"></path><path fill="#94e986" d="M166.88541666666666 113.25885416666665c5.619270833333333 -4.9156249999999995 10.036979166666667 -9.541666666666666 13.210416666666665 -13.878645833333332 6.274479166666667 -8.575520833333334 9.219270833333333 -20.125 9.219270833333333 -34.28125 0 -14.659479166666667 -5.4546874999999995 -26.429010416666664 -16.4265625 -34.92364583333333 -10.891145833333333 -8.623489583333333 -25.923437499999995 -12.719270833333333 -44.67343749999999 -12.719270833333333 -5.957812499999999 0 -26.86614583333333 0.16765625 -26.86614583333333 0.16765625s5.129687499999999 0 16.328124999999996 2.3135416666666666c11.349999999999998 2.7534375 17.670312499999998 7.041718749999999 21.706770833333334 10.238072916666667 10.971874999999999 8.494635416666666 16.4265625 20.264166666666664 16.4265625 34.92364583333333 0 14.156249999999998 -2.9442708333333334 25.705729166666668 -9.219270833333333 34.28125 -5.605729166666666 7.6609375 -15.094270833333331 16.223958333333332 -28.229166666666664 25.69375l21.386979166666666 21.3875c0.5880208333333333 -2.7223958333333336 1.2036458333333333 -6.305208333333333 1.8317708333333333 -10.808854166666666 1.1380208333333333 -8.155208333333333 1.7901041666666666 -14.714062499999999 1.9749999999999999 -19.711458333333333l0.11927083333333333 -3.2177083333333334 23.210416666666667 0.5354166666666667Z" stroke-width="2"></path><path fill="#94e986" d="m90.97552083333333 154.45833333333331 -17.800520833333334 -17.800520833333334c-5.5874999999999995 3.0479166666666666 -9.715104166666666 6.765624999999999 -12.527083333333332 11.097395833333334 -3.1390625 4.835416666666666 -4.7703125 10.6390625 -4.7703125 17.547916666666666 0 8.797395833333333 2.553125 14.844791666666666 7.157291666666667 18.774479166666666 4.703645833333333 4.014583333333333 12.106770833333332 6.304687499999999 22.789062499999996 6.304687499999999 6.207812499999999 0 12.277083333333334 -0.7223958333333332 18.2140625 -2.166145833333333 -3.016145833333333 -1.0395833333333333 -5.501041666666667 -2.433333333333333 -7.4984375 -4.138541666666666 -4.6046875 -3.9296874999999996 -7.157291666666667 -9.977083333333333 -7.157291666666667 -18.774479166666666 0 -3.971354166666666 0.5390624999999999 -7.577604166666666 1.5932291666666667 -10.844791666666666Z" stroke-width="2"></path><path stroke="#000000" stroke-linejoin="round" d="M166.88541666666666 113.25885416666665c5.619270833333333 -4.9156249999999995 10.036979166666667 -9.541666666666666 13.210416666666665 -13.878645833333332 6.274479166666667 -8.575520833333334 9.219270833333333 -20.125 9.219270833333333 -34.28125 0 -14.659479166666667 -5.4546874999999995 -26.429010416666664 -16.4265625 -34.92364583333333 -10.891145833333333 -8.623489583333333 -25.923437499999995 -12.719270833333333 -44.67343749999999 -12.719270833333333 -5.957812499999999 0 -26.86614583333333 0.16765625 -26.86614583333333 0.16765625s5.129687499999999 0 16.328124999999996 2.3135416666666666c11.349999999999998 2.7534375 17.670312499999998 7.041718749999999 21.706770833333334 10.238072916666667 10.971874999999999 8.494635416666666 16.4265625 20.264166666666664 16.4265625 34.92364583333333 0 14.156249999999998 -2.9442708333333334 25.705729166666668 -9.219270833333333 34.28125 -5.605729166666666 7.6609375 -15.094270833333331 16.223958333333332 -28.229166666666664 25.69375l21.386979166666666 21.3875c0.5880208333333333 -2.7223958333333336 1.2036458333333333 -6.305208333333333 1.8317708333333333 -10.808854166666666 1.1380208333333333 -8.155208333333333 1.7901041666666666 -14.714062499999999 1.9749999999999999 -19.711458333333333l0.11927083333333333 -3.2177083333333334 23.210416666666667 0.5354166666666667Z" stroke-width="2"></path><path stroke="#000000" stroke-linejoin="round" d="m90.97552083333333 154.45833333333331 -17.800520833333334 -17.800520833333334c-5.5874999999999995 3.0479166666666666 -9.715104166666666 6.765624999999999 -12.527083333333332 11.097395833333334 -3.1390625 4.835416666666666 -4.7703125 10.6390625 -4.7703125 17.547916666666666 0 8.797395833333333 2.553125 14.844791666666666 7.157291666666667 18.774479166666666 4.703645833333333 4.014583333333333 12.106770833333332 6.304687499999999 22.789062499999996 6.304687499999999 6.207812499999999 0 12.277083333333334 -0.7223958333333332 18.2140625 -2.166145833333333 -3.016145833333333 -1.0395833333333333 -5.501041666666667 -2.433333333333333 -7.4984375 -4.138541666666666 -4.6046875 -3.9296874999999996 -7.157291666666667 -9.977083333333333 -7.157291666666667 -18.774479166666666 0 -3.971354166666666 0.5390624999999999 -7.577604166666666 1.5932291666666667 -10.844791666666666Z" stroke-width="2"></path><path stroke="#000000" stroke-linejoin="round" d="M206.80364583333332 174.11406250000002c6.536979166666667 -16.4296875 11.171875 -35.366145833333334 13.940104166666666 -56.77552083333333l0.35572916666666665 -2.75 -33.39479166666667 -0.8494791666666666 -0.46510416666666665 3.599479166666667c-2.76875 21.409374999999997 -7.403645833333333 40.34583333333333 -13.940624999999999 56.77552083333333h33.504687499999996Z" stroke-width="2"></path><path stroke="#000000" stroke-linejoin="round" d="m239.57604166666667 202.79375 -32.772395833333334 -28.675520833333334h-33.504687499999996l32.772395833333334 28.675520833333334h33.504687499999996Z" stroke-width="2"></path><path stroke="#000000" stroke-linejoin="round" d="m213.59947916666664 232.54010416666665 25.989062499999996 -29.751041666666666h-33.50416666666666l-25.969791666666666 29.751041666666666h33.48489583333333Z" stroke-width="2"></path></svg>