<svg xmlns="http://www.w3.org/2000/svg" fill="none" viewBox="-0.5 -0.5 125 125" id="Ampersand-And--Streamline-Retro.svg" height="125" width="125"><desc>Ampersand And Streamline Element: https://streamlinehq.com</desc><path stroke="#fff" stroke-linejoin="round" d="M46.97042499999999 8.66326c-9.208291666666666 0 -16.726308333333332 1.985420833333333 -22.390111666666662 6.128906666666666 -5.730169166666665 4.0962625 -8.622107499999998 9.796129166666667 -8.622107499999998 16.931683333333332 0 4.8422 0.5782016666666666 8.895966666666666 1.8131383333333333 12.086124999999997l0.008111666666666666 0.020924999999999996 0.00868 0.020666666666666663c1.1637141666666664 2.7750166666666662 3.3736783333333333 6.186308333333332 6.544616666666665 10.20675 -6.184577499999999 2.709141666666666 -10.902467499999998 6.189408333333333 -14.026156666666665 10.504349999999999C6.815556666666666 69.28965 5.166666666666666 75.68107499999999 5.166666666666666 83.55171666666665c0 10.080941666666666 2.997984166666666 17.968374999999998 9.218935 23.373483333333333l0.010669166666666665 0.0093 0.010798333333333332 0.009041666666666667c6.317309166666665 5.298416666666666 16.646664166666667 7.762399999999999 30.57548083333333 7.762399999999999 5.993591666666666 0 11.661425 -1.1805833333333333 16.986966666666664 -3.5474333333333328l0.006199999999999999 -0.0028416666666666664 0.006199999999999999 -0.0028416666666666664c4.838841666666666 -2.1994499999999997 8.928258333333332 -4.934166666666666 12.237766666666664 -8.21965l15.109399999999997 12.401291666666665 12.889283333333331 -14.754708333333332 -16.2533 -14.221766666666666c3.2420833333333325 -8.148091666666666 5.540474999999999 -17.5398 6.913516666666666 -28.157558333333327l0.23094999999999996 -1.7853416666666666 -21.855516666666666 -0.5042666666666666 -0.058899999999999994 1.595983333333333c-0.09196666666666665 2.4784499999999996 -0.41539999999999994 5.731125 -0.9795999999999998 9.775591666666665 -0.3118083333333333 2.233808333333333 -0.6169 4.010624999999999 -0.9085583333333332 5.360675l-10.606908333333333 -10.606908333333333c6.514391666666666 -4.6967583333333325 11.220191666666667 -8.943241666666665 14.000374999999998 -12.74280833333333 3.1118833333333327 -4.252941666666667 4.572241666666666 -9.980966666666665 4.572241666666666 -17.001691666666662 0 -7.2703524999999996 -2.7052666666666663 -13.107419999999998 -8.146799999999999 -17.32032 -5.401233333333333 -4.276785833333332 -12.856733333333331 -6.308086666666666 -22.155441666666665 -6.308086666666666ZM38.50845833333333 35.983508333333326c0 -2.9152916666666666 0.7378 -4.805775 1.9310416666666665 -5.981449999999999 1.1976333333333333 -1.1800666666666666 3.1299666666666663 -1.9124416666666664 6.104933333333332 -1.9124416666666664 3.0509166666666663 0 5.036983333333333 0.6993083333333332 6.256316666666667 1.8127249999999997 1.1914333333333331 1.0878416666666664 1.9217416666666665 2.8209999999999997 1.9217416666666665 5.513349999999999 0 2.824616666666666 -0.7204916666666665 5.181391666666666 -2.1064499999999997 7.144208333333332 -1.3149166666666665 1.77475 -3.531933333333333 3.8801666666666663 -6.735783333333333 6.315216666666665l-1.4203166666666664 -1.503758333333333 -0.0015499999999999997 -0.001808333333333333c-4.148316666666666 -4.42525 -5.949933333333332 -8.206991666666665 -5.949933333333332 -11.386041666666666Zm-10.791616666666664 46.00606666666666c0 -3.4262749999999995 0.8090999999999998 -6.304625 2.3658166666666665 -8.702733333333331 1.394483333333333 -2.1483 3.4415166666666663 -3.992283333333333 6.212658333333333 -5.503791666666666l22.560766666666666 22.561024999999997c-1.2348333333333332 0.9532499999999999 -3.079333333333333 1.837783333333333 -5.66215 2.5853999999999995 -3.449266666666666 0.9984583333333332 -6.989466666666666 1.4980749999999998 -10.62525 1.4980749999999998 -5.298158333333332 0 -8.969591666666666 -1.1356333333333333 -11.302341666666665 -3.126608333333333 -2.283408333333333 -1.9488666666666663 -3.5495 -4.9481166666666665 -3.5495 -9.311366666666666Z" clip-rule="evenodd" stroke-width="1"></path><path stroke="#fff" stroke-linejoin="round" d="M51.570825 114.20916666666666c3.1002583333333327 0.33247499999999997 6.445674999999999 0.4954833333333333 10.029533333333333 0.4954833333333333 5.993333333333332 0 11.661425 -1.1803249999999998 16.986966666666664 -3.5474333333333328l0.006199999999999999 -0.002583333333333333 0.006199999999999999 -0.0028416666666666664c1.2128749999999997 -0.5512833333333332 2.3789916666666664 -1.1364083333333332 3.497316666666666 -1.7553749999999997l-7.876066666666666 -6.464274999999999c-3.3095083333333326 3.285483333333333 -7.398924999999999 6.020199999999999 -12.237766666666664 8.21965l-0.006199999999999999 0.0028416666666666664 -0.006199999999999999 0.002583333333333333c-3.333791666666666 1.4817999999999998 -6.801916666666666 2.4985999999999997 -10.399983333333333 3.0519499999999997Z" stroke-width="1"></path><path stroke="#fff" stroke-linejoin="round" d="M102.57796666666665 86.35721666666666c3.2418249999999995 -8.148091666666666 5.540474999999999 -17.539541666666665 6.913516666666666 -28.157558333333327l0.17644166666666664 -1.3639999999999999 -16.56200833333333 -0.4210833333333333 -0.23094999999999996 1.785083333333333c-1.372783333333333 10.618016666666666 -3.671433333333333 20.009466666666665 -6.913516666666666 28.157558333333327h16.616516666666666Z" stroke-width="1"></path><path stroke="#fff" stroke-linejoin="round" d="m118.83126666666666 100.58182499999998 -16.2533 -14.221766666666666h-16.616516666666666l16.2533 14.221766666666666h16.616516666666666Z" stroke-width="1"></path><path stroke="#fff" stroke-linejoin="round" d="m105.94353333333332 115.33575833333332 12.889283333333331 -14.754708333333332h-16.616516666666666l-12.879466666666664 14.754708333333332h16.606699999999996Z" stroke-width="1"></path><path stroke="#fff" stroke-linejoin="round" d="M82.76664166666666 56.17639166666666c2.7868999999999997 -2.4378916666666663 4.977824999999999 -4.73215 6.551591666666665 -6.883033333333333 3.1121416666666666 -4.252941666666667 4.5725 -9.980966666666665 4.5725 -17.001691666666662 0 -7.2703524999999996 -2.7052666666666663 -13.107419999999998 -8.146799999999999 -17.32032 -5.401491666666666 -4.276785833333332 -12.856733333333331 -6.308086666666666 -22.155441666666665 -6.308086666666666 -2.954816666666666 0 -13.324574999999998 0.08313166666666666 -13.324574999999998 0.08313166666666666s2.5443249999999997 0 8.097975 1.1473874999999998c5.629083333333332 1.3655758333333332 8.763441666666665 3.4923308333333325 10.765524999999998 5.0775675 5.441533333333332 4.212899999999999 8.146799999999999 10.0499675 8.146799999999999 17.32032 0 7.020724999999999 -1.4603583333333332 12.748749999999998 -4.572241666666666 17.001691666666662 -2.780183333333333 3.7995666666666663 -7.4859833333333325 8.04605 -14.000374999999998 12.74280833333333l10.606908333333333 10.606908333333333c0.2916583333333333 -1.3500499999999998 0.59675 -3.126866666666666 0.9085583333333332 -5.360675 0.5641999999999999 -4.044466666666667 0.8876333333333333 -7.297141666666666 0.9793416666666666 -9.775591666666665l0.05915833333333333 -1.595983333333333 11.511074999999998 0.2655666666666666Z" stroke-width="1"></path><path stroke="#fff" stroke-linejoin="round" d="m45.122049999999994 76.61055833333333 -8.828283333333333 -8.828283333333333c-2.770883333333333 1.511508333333333 -4.818174999999999 3.355491666666666 -6.212658333333333 5.503791666666666 -1.5567166666666665 2.398108333333333 -2.3658166666666665 5.276458333333332 -2.3658166666666665 8.702733333333331 0 4.36325 1.2660916666666664 7.362241666666666 3.549758333333333 9.311366666666666 2.33275 1.9907166666666662 6.004183333333332 3.126608333333333 11.302083333333332 3.126608333333333 3.078816666666666 0 6.088916666666666 -0.3583083333333333 9.033141666666666 -1.07415 -1.4957499999999997 -0.5156333333333333 -2.7279999999999998 -1.2069333333333332 -3.718708333333333 -2.052458333333333 -2.2836666666666665 -1.9491249999999996 -3.549758333333333 -4.9481166666666665 -3.549758333333333 -9.311366666666666 0 -1.969533333333333 0.267375 -3.7579749999999996 0.7902416666666666 -5.378241666666666Z" stroke-width="1"></path></svg>